<svg xmlns="http://www.w3.org/2000/svg" viewBox="0 0 180 200" fill="none">
<path d="M90 8 L166 32 V96 C166 146 132 178 90 194 C48 178 14 146 14 96 V32 Z" stroke="#1c1c1a" stroke-width="2.5" stroke-linejoin="round" fill="#f6f4ee"></path>
<path d="M90 16 L158 37 V96 C158 140 128 168 90 184 C52 168 22 140 22 96 V37 Z" stroke="#3f6146" stroke-width="1.2" stroke-linejoin="round" fill="none"></path>
<defs><path id="leaf" d="M0,0 C4,-4.5 11,-4.5 15,0 C11,4.5 4,4.5 0,0 Z" fill="#3f6146" stroke="#1c1c1a" stroke-width="0.6"></path></defs>
<path d="M52 140 Q42 112 46 84 Q49 58 60 42" stroke="#1c1c1a" stroke-width="1.3" fill="none" stroke-linecap="round"></path>
<use href="#leaf" transform="translate(50,132) rotate(-100)"></use><use href="#leaf" transform="translate(45,116) rotate(-112)"></use><use href="#leaf" transform="translate(43,98) rotate(-122)"></use><use href="#leaf" transform="translate(45,80) rotate(-132)"></use><use href="#leaf" transform="translate(50,63) rotate(-142)"></use><use href="#leaf" transform="translate(57,48) rotate(-152)"></use>
<g transform="translate(180,0) scale(-1,1)">
<path d="M52 140 Q42 112 46 84 Q49 58 60 42" stroke="#1c1c1a" stroke-width="1.3" fill="none" stroke-linecap="round"></path>
<use href="#leaf" transform="translate(50,132) rotate(-100)"></use><use href="#leaf" transform="translate(45,116) rotate(-112)"></use><use href="#leaf" transform="translate(43,98) rotate(-122)"></use><use href="#leaf" transform="translate(45,80) rotate(-132)"></use><use href="#leaf" transform="translate(50,63) rotate(-142)"></use><use href="#leaf" transform="translate(57,48) rotate(-152)"></use>
</g>
<circle cx="90" cy="88" r="30" stroke="#1c1c1a" stroke-width="2" fill="none"></circle>
<g stroke="#1c1c1a" stroke-width="1" fill="none" opacity="0.7"><path d="M74 74 L106 74"></path><path d="M68 88 L112 88"></path><path d="M74 102 L106 102"></path><path d="M79 68 L79 108"></path><path d="M101 68 L101 108"></path></g>
<path d="M90 68 L94.5 80.5 L107.7 80.5 L97 88 L100.9 100.9 L90 93 L79.1 100.9 L83 88 L72.3 80.5 L85.5 80.5 Z" fill="#3f6146"></path>
<defs><path id="tntfArc" d="M58 152 Q90 164 122 152" fill="none"></path></defs>
<text text-anchor="middle" font-family="Georgia, serif" font-size="20" font-weight="600" fill="#1c1c1a" letter-spacing="3"><textPath href="#tntfArc" startOffset="50%">TNTF</textPath></text>
</svg>